<svg xmlns="http://www.w3.org/2000/svg" viewBox="0 0 785 229" width="200" height="50" preserveAspectRatio="xMidYMid meet">
  <style>
    .s0 { fill: #ffffff } 
    .s1 { fill: #f7f7f7 } 
    .s2 { fill: #d8165a } 
    .s3 { fill: #ffb703 } 
    .s4 { fill: #a10c40 } 
  </style>
  <path id="SipMatch" fill-rule="evenodd" class="s0" d="m160 144.75q-11.25 0-19.75-4-8.5-4.25-14.5-9.75-6-5.75-10.25-10-4-4.5-6.25-4.75 1-3.25 2.75-5 2-1.75 5.75-1.75 4.75 0 8 3.25 3.5 3.25 8.5 9 7 7.5 13.75 12 7 4.25 16.25 4.25 5.75 0 11-3.25 5.5-3.5 5.5-9.75 0-6-4.75-10.5-4.5-4.5-11.5-8.75-6.75-4.25-13.75-9-6.75-5-11.5-11.75-4.5-6.75-4.5-16.5 0-12.5 5.75-23.5 6-11.25 15.5-19.75 9.5-8.5 20.75-13.25 11.25-4.75 22-4.75 9.5 0 14.5 7 5.25 7 5.25 17.5 0 4.5-2.75 9.5-2.5 5-6.25 10.25-3.5 5.25-6.25 10.75-2.5 5.25-2.5 10.5-3.75 0-6.25-3.25-2.25-3.5-2.25-7.5 0-5.75 2.5-10.5 2.75-5 6.25-9.5 3.5-4.5 6-9 2.75-4.5 2.75-9.75 0-1-1.5-4.25-1.25-3.25-6.75-3.25-7.5 0-16.5 5-9 5-17.25 13-8.25 7.75-13.5 16.75-5.25 8.75-5.25 16.25 0 7.25 4.5 12.75 4.5 5.5 11 10 6.75 4.25 13.25 8.5 6.5 4.25 11 9.25 4.5 5 4.5 11.75 0 8.75-4.75 14.5-4.75 5.75-12.25 8.5-7.5 2.75-16.25 2.75zm95.75-102.5q-2.75 0-4.5-1.75-1.75-2-1.75-4.5 0-3.75 2.5-6.25 2.75-2.75 6-2.75 3.25 0 5 2.25 2 2 1.5 5.25-0.75 3.25-3.25 5.5-2.25 2.25-5.5 2.25zm-34.25 98.75q-5.5 0-9.5-3.5-4-3.75-4-12.5 0-3.75 0.75-8.25 2.25-11.75 7.25-22.5 5.25-10.75 10-18.5 5-8 6.5-10.5 1.25-2.5 6.5-4.75 5.25-2.5 8.75-2.5 3 0 3 2 0 1.75-1.25 3.25-3.75 6-8.75 13.75-4.75 7.5-9.25 16-4.5 8.5-7.5 16.75-3 8.25-3 15.25 0 3.75 1.25 6 1.5 2.25 5.25 2.25 4 0 9.25-3.75 5.25-4 10-8.75 5-5 7.25-7.75 2.5-2.75 4.75-5.25 2.5-2.5 4.5-5.25 0.75-0.75 1.25-0.75 0.34 0 0.61 0.12 4.41-8.77 8.64-16.62 7.25-13 13-21.5 9.25-14.25 16-20 6.75-6 11.75-7.5 5.25-1.5 9.25-2.25-15.25 19-29.25 41.25-13.75 22.25-28 50.5 6.5-10 14.25-21.75 8-12 16.5-22.5 8.25-10.25 16.25-17 8.25-7 13.75-7 7.25 0 9.75 4.25 2.75 4.25 2.75 10 0 8-3.25 17.75-3.25 9.5-9.25 19.5-5.75 9.75-13.75 18.25-7.75 8.25-17 13.75 8.75-2 15.75-5 7-3 14-8.25 7-5.5 15.25-14.5 2.75-2.75 5.5-6 3-3.5 5-6.25 0.75-0.75 1.25-0.75 1.32 0 1.48 1.75 2.57-3.81 4.52-7 9.5-15.5 19.25-31.5 10-16 17.75-31 7.75-15.25 10.75-27.75 0.5-0.25 2-0.25 4.5 0 9.25 4.5 5 4.25 5.5 8.5 0 0.75 0 1.5 0.25 0.75 0.25 1.75 0 6.25-2 15.25-2 9-4.5 19-2.25 10-4 19.75-1.75 10.25-3.5 19.75-1.5 9.5-2.75 16 6-7.75 13.75-18 7.75-10.5 16.25-22 8.5-11.5 16.75-22.5 8.25-11.25 15-20.5 7-9.5 11.25-15.75 4.5-6.25 5.25-7.5 4.5 0 9.25 2.5 4.75 2.5 4.75 7.5 0 1-0.75 3.75-0.75 2.75-5.5 11.75-7.75 16-16.25 32.5-8.5 16.5-15.5 33.5-3 7.5-6.25 15.5-3 7.75-6 16.5-1.75 5.25-2.25 9.25-0.25 4-0.5 6.25-5.25-2.75-7.75-7.5-2.25-5-2.25-11 0-8 4.5-19 4.5-11 11-23 6.75-12.25 13.25-23.75 6.75-11.75 11.25-21.25 4.5-9.5 4.5-15.25 0 0-3.25 4.5-3.25 4.5-8.25 11.25-5 6.75-10.25 14-5.25 7.25-9.5 12.75-4 5.5-5.5 7.5-10.75 14.75-20 27-9 12-13.75 21-2.5 5.25-3.5 9.5-0.75 4-0.75 7.25-6.25 0-8.5-5.5-2.25-5.5-2.25-12.5 0-4.25 0.5-8.5 0.5-4.5 1-7.75 1.75-10.75 4.5-24.5 2.75-14 5.5-27.5 3-13.75 4.5-23.25-2.25 6.5-6.25 14.5-4 7.75-8.5 15.75-4.25 7.75-8.25 14.25-4 6.5-6.25 10-4.75 7-10 16.25-5 9-9.5 17.75-4.75 9-8.25 16.75-3.25 7.5-3.75 11-3.75-2-5.75-5.5-2-3.5-2-10.75 0-5.25 2.75-11 1.5-2.99 3.18-5.86-0.58 0.67-1.18 1.36-3.25 3.75-6.25 7.25-8.75 9-19.25 16-10.25 6.75-23.5 10.25-9 2.25-19.75 2.25-2.25 0-4.5 0-2.25-0.25-4.25-0.5-3.5-0.25-6.75-1.75-3.25-1.75-3.5-6.25-11.75 24.5-18.5 47.25-6.75 22.5-12 41.25-0.5 2-2.25 0-1.5-2.25-2.75-7-1.25-4.75-1.25-10.5 0-4.5 1-8.25 2.75-11.75 8.25-26.5 5.5-15 12.25-30.75 7-16 14.5-31.25 0.27-0.56 0.55-1.13-0.15 0.19-0.3 0.38-2.75 3.25-5.75 6.5-4 4.75-9 9.75-5 5-10.75 8.5-5.75 3.25-12.5 3.25zm51.75 2.25q7.75 0 16.25-6.5 8.75-6.5 16.25-16.75 7.75-10.5 12.75-22.5 2.75-6.25 5-14.25 2.5-8.25 2.5-13.25 0-5-2.75-5-3.25 0-8.5 5-5 5-13.25 14.5-2.75 3.25-7 9-4 5.75-8.5 12.25-4.25 6.25-7.75 11.75-3.5 5.5-5.25 8.5-1.5 2.75-3.25 6.5-1.5 3.5-1.5 6.25 0 4.5 5 4.5zm221.75-1.25q-8.25 0-11.5-4-3.25-4-3.25-9.75 0-7.5 3.5-16 3.75-8.5 6.5-13.25 6.75-10.75 16-20.5 9.25-9.75 19.5-15.75 10.5-6.25 20-6.25 5 0 9.75 1.75 4.75 1.5 9.25 5.25 2.25 1.75 3 3.5 1 1.5 1 2.75 0 3.75-3.25 3.75-2.25 0-3.25-3-3.25-8.5-10.5-8.5-6.25 0-14.25 5.75-8 5.75-15.75 13.75-8.5 9-15.5 19.5-7 10.25-10.5 18.75-1.75 3.75-2.5 6.75-0.5 2.75-0.5 4.75 0 4.5 3.75 4.5 4.25 0 12.5-6.25 6-4.75 12.25-11.5 6.5-6.75 12-13.25 5.5-6.75 8.75-10.5 1.25-2 2.25-3.75 1.25-1.75 2.25-3 1-1.25 3.25-2 2.5-0.75 5-0.75 3 0 5 1 2 1 0.75 3.5 0 0.25-2.75 5.25-2.75 4.75-6.5 11.5-3.5 6.75-6.25 13-1.5 3.5-2.5 6.5-1 3-1 5 0 3.25 2.5 3.25 1.75 0 5.25-2 5.5-2.75 11-8 5.75-5.25 10.5-10.75 2.75-2.75 5-5.25 1.57-1.74 3.01-3.6 1.63-4.33 3.74-9.15 6.25-14.5 16-32.75h-9.5q-2.75 0-2.75-1.5 0-0.75 1.25-1.5 1.5-1 4-1h9q4.25-7.25 6.75-11.25 2.75-4.25 4.5-6.5 6.5-8.25 11.75-11.5 5.5-3.5 9.5-4 4-0.5 5.75-0.5-3.5 3.75-7.75 9.75-4.25 6-8.25 12.5-4 6.25-6.75 11.5h25.5q2.75 0 2.75 1.25 0 1-1.5 2-1.5 0.75-4 0.75h-25.25q-4 7.25-7.25 13-3 5.5-6.25 11.75-3 6.25-7.5 15.5-3.5 7.75-5.25 13.25-1.5 5.5-1.5 9.25 0 4.75 2 6.75 2 2 5 2 3 0 7-2 5.5-2.75 11-8 5.5-5.25 10.5-10.75 2.5-2.75 4.75-5.25 2.25-2.5 4.25-5.25 0.38-0.38 0.69-0.57 1.41-3.76 2.81-6.43 5.25-10.5 12.75-19.25 7.5-8.75 15.75-14 8.5-5.5 15.75-5.5 7.25 0 11.25 5 4 4.75 4 10.5 0 5-2.75 8.5-3.5 4.75-6 6.75-2.5 2-3.75 2-1.25 0-1.25-1.75 0-1.5 1.25-4.75 0.5-1.5 2-5.25 1.5-3.75 2.75-7.5 1.25-3.75 1-5-3.75-0.75-10.75 4.25-6.75 4.75-14 12.75-7.25 7.75-12 16.5-1 2-3.5 7.5-2.5 5.5-4.5 12-2 6.25-2 11.75 0 4.25 2 7.25 2 2.75 6.75 2.75 4 0 9.5-2 9.5-3 17.5-10 8.25-7 15.25-14.75 2.5-2.75 4.75-5.25 2.11-2.34 4-4.69 4.36-9.69 8.75-18.81 13-26.5 24.5-47.5 8.5-15.75 16.25-23.75 8-8 14.5-10.75 6.5-2.75 10.75-2.5-6 6.5-13.75 18.25-7.75 11.5-16.25 26.5-8.5 15-17 31.75-8.5 16.5-16 33 2.25-3 6.5-8.5 4.5-5.75 10.25-12.5 5.75-6.75 11.75-12.75 6.25-6.25 12.25-10 6-4 10.75-4 5.5 0 7.25 2.75 2 2.5 2 6 0 4.75-3.25 11.25-3 6.5-7.5 13.25-4.5 6.75-9 13-4.25 6.25-6.75 11-3.5 7-3.5 11 0 3.75 3.25 3.75 1 0 2.5-0.5 1.75-0.5 3.5-1.5 5.5-2.75 11-8 5.5-5.25 10.5-10.75 2.5-2.75 4.75-5.25 2.25-2.5 4.25-5.25 0.75-0.75 1.25-0.75 1.5 0 1.5 2.25 0 1.25-1 2.25-5.25 6.5-11 13.25-3 3.25-6 6.5-2.75 3-5.5 5.75-10.75 10-20.25 10-5 0-7.5-3-2.25-3.25-2.25-8 0-6.5 3.25-15 3.5-8.75 8.5-16.5 0.5-0.75 3-4.75 2.75-4 6-9.25 3.25-5.5 5.75-10 2.5-4.75 2.5-6.75 0-1.75-2-1-2 0.75-7 5-5.25 4.5-11.75 11.5-6.5 7-13.5 15.25-7 8-13.25 16.25-6 8.25-10.5 15.25l-1.5 4.25q-1.5 4-4.5 5.25-2.75 1-6.25 1-3.25 0-6.75 1 5.42-13.55 10.89-26.21-1.57 1.86-3.14 3.71-8.25 9.25-18.75 17.25-10.25 7.75-23.75 7.75-9.75 0-15.75-5-6-5-6-15.75 0-6.3 1.59-12.96-3.45 4.18-7.09 8.46-6.75 7.75-15 15-8.25 7.25-19.75 7.25-5.5 0-9.25-3.25-3.75-3.25-3.75-11 0-2 0.25-4 0.25-2 0.75-4.25 0.52-2.58 1.32-5.45-2.44 2.85-5.07 5.7-2.75 3.25-5.75 6.5-2.75 3-5.75 5.75-10.75 10-19.75 10-4 0-6.75-2.75-2.75-3-2.75-9.25 0-4.75 1.75-10.75 0.5-2.75 1.5-5.5 1.25-2.75 2.25-5.75-5 8-11.5 16-6.25 7.75-13.5 13-7.25 5.25-15.25 5.25z"/>
  <g id="Icono copa">
    <path id="Path 0" fill-rule="evenodd" class="s1" d="m0 16h20.5c11.27 0 20.69 0.34 20.93 0.75 0.23 0.41-1.11 3.22-2.98 6.25-1.87 3.03-3.41 6.29-3.43 7.25-0.02 1.57-1.45 1.78-13.77 2-7.99 0.15-14.34-0.17-15.16-0.75-0.77-0.55-2.46-3.25-3.74-6-1.28-2.75-2.33-6.01-2.34-7.25zm113 0l-0.02 2.75c-0.01 1.51-0.89 4.55-1.95 6.75-1.06 2.2-2.51 4.68-3.23 5.5-1.11 1.28-5.47 1.46-57.8 1l0.54-2.75q0.54-2.75-2-7.5c-1.4-2.61-2.54-4.97-2.54-5.25 0-0.28 15.07-0.5 67-0.5zm-70.5 62.09c1.1 0.87 3.57 2.21 5.5 2.97 1.92 0.77 5.97 1.39 9 1.39 3.25-0.01 6.83-0.72 8.75-1.73 1.98-1.05 3.45-1.33 3.75-0.72 0.27 0.55-1.19 4.04-7 14.5l-0.5 39.5 5.75 0.01c3.16 0.01 6.87 0.59 8.25 1.28q2.5 1.26 2.82 4.23c0.22 2.02-0.27 3.39-1.5 4.25-1.31 0.91-7.13 1.27-20.82 1.28-16.89 0.01-19.2-0.18-20.83-1.77-1.28-1.24-1.66-2.61-1.25-4.53 0.35-1.68 1.56-3.14 3.08-3.75 1.37-0.55 4.97-1 13.5-1l-0.5-40.5-3.44-6.5c-1.89-3.57-4.14-7.4-5-8.5-1.5-1.92-1.48-1.94 0.44-0.41zm30.21-1.07c0.12-0.01 0.01 0.43-0.25 0.98-0.25 0.55-1.02 0.99-1.71 0.98q-1.25-0.01 0.25-0.98c0.82-0.53 1.6-0.98 1.71-0.98z"/>
    <path id="Path 1" class="s2" d="m38.39 22.9c-2.62 4.15-3.64 6.84-3.5 9.23 0.11 1.85 0.96 4.88 1.9 6.73 1.15 2.25 2.53 3.44 4.21 3.63 2.1 0.24 3.02-0.62 5.76-5.35 1.8-3.1 3.5-6.76 3.79-8.14 0.32-1.53-0.36-4.2-1.76-6.89-1.47-2.82-3.08-4.51-4.5-4.73-1.76-0.28-2.95 0.84-5.9 5.52zm-29.84 10.1c-0.3 0.55 3.34 6.29 8.09 12.75 4.76 6.46 9.71 13.1 11.02 14.75 1.3 1.65 4.09 5.47 6.2 8.5 2.12 3.03 5.38 6.65 7.24 8.06 1.87 1.41 4.75 3.06 6.4 3.67 1.65 0.61 4.24 1.37 5.75 1.69 1.51 0.32 2.75 0.24 2.74-0.17 0-0.41-1.8-1.76-4-3-2.98-1.68-8.02-7.66-19.99-23.75-8.8-11.82-16-21.95-16-22.5 0-0.55-1.55-1-3.45-1-1.9 0-3.7 0.45-4 1z"/>
    <path id="Path 2" class="s3" d="m20.72 2.65c-0.33 0.47 1.07 3.67 3.09 7.11l3.69 6.26c9.69-0.02 13.63 0.43 15 0.98q2.5 1 3 0c0.27-0.55-0.6-2.91-1.94-5.25-1.34-2.34-3.62-5.38-5.08-6.75-2.22-2.1-3.81-2.56-9.9-2.85-4-0.2-7.53 0.03-7.86 0.5zm19.44 40.24c-0.09 0.61 1.42 3.58 3.34 6.61 1.92 3.03 4.4 5.95 5.5 6.5 1.1 0.55 4.36 1.29 7.25 1.65 2.89 0.36 6.04 0.36 7 0 1.55-0.57 1.29-1.37-2.19-6.9l-3.95-6.25c-10.55-0.92-14.33-1.54-15.2-1.95-0.95-0.45-1.66-0.31-1.75 0.34z"/>
    <path id="Path 3" class="s4" d="m16 33c0 0.55 7.12 10.56 15.82 22.25 10.85 14.57 17.06 22.02 19.75 23.7 2.16 1.34 4.16 2.84 4.43 3.33 0.27 0.49 2.08 0.57 4 0.18 1.92-0.4 4.63-1.14 6-1.66 1.38-0.52 2.52-0.8 2.55-0.62 0.03 0.18 1.69-1.25 3.69-3.18 2-1.93 10.41-12.61 18.7-23.75 8.28-11.14 14.72-20.49 14.31-20.78-0.41-0.29-13.01-0.51-28-0.5l-27.25 0.03c-4.67 7.36-5.88 9.95-5.69 10.5 0.19 0.55 3.13 1.11 6.52 1.25l6.17 0.25c7.54 12.25 7.8 13.07 6.25 13.65-0.96 0.36-4.23 0.34-7.25-0.04-3.02-0.38-6.4-1.27-7.5-1.98-1.1-0.7-4.38-5.07-7.29-9.7-2.92-4.64-5.62-9.68-6-11.2l-0.71-2.78c-14.73 0.04-18.5 0.46-18.5 1.05z"/>
  </g>
</svg>